<svg xmlns="http://www.w3.org/2000/svg" id="SvgjsSvg51235" width="4096" height="1398.847801857259" version="1.1" xmlns:xlink="http://www.w3.org/1999/xlink" xmlns:svgjs="http://svgjs.com/svgjs"><defs id="SvgjsDefs51236"></defs><g id="SvgjsG51237" transform="translate(328, 328) scale(34.4)" opacity="1"><defs id="SvgjsDefs12791"></defs><g id="SvgjsG12792" transform="scale(0.21645021645021648)" opacity="1"><g id="SvgjsG12793" class="text" transform="translate(87.88, 85.2274333943329) scale(1)" light-content="false" fill="#ffffff"><path d="M-62.56 -37.56L-87.88 -37.56L-87.88 -30.41L-79.1 -30.41L-79.1 0L-71.7 0L-71.7 -30.41L-62.56 -30.41Z M-34.8 -7.35L-31.89 0L-23.32 0L-40.26 -39.04L-40.67 -39.04L-57.61 0L-50.32 0L-47.25 -7.35ZM-37.25 -13.57L-44.65 -13.57L-40.88 -22.71Z M10.72 -37.56L-12.76 -37.56L-12.76 0L-5.36 0L-5.36 -14.75L8.57 -14.75L8.57 -21.89L-5.36 -21.89L-5.36 -30.41L10.72 -30.41Z M37.97 -7.35L40.88 0L49.45 0L32.51 -39.04L32.1 -39.04L15.16 0L22.45 0L25.52 -7.35ZM35.52 -13.57L28.12 -13.57L31.89 -22.71Z M80.27 0L88.9 0L80.17 -13.63C82.18 -14.78 83.67 -16.37 84.63 -18.4C85.6 -20.42 86.09 -22.59 86.09 -24.9C86.09 -28.82 84.8 -31.9 82.24 -34.17C79.67 -36.43 76.05 -37.56 71.39 -37.56L60.01 -37.56L60.01 0L67.41 0L67.41 -11.94L72.36 -11.94ZM67.41 -19.09L67.41 -30.41L72.72 -30.41C74.96 -30.41 76.48 -29.79 77.26 -28.55C78.04 -27.31 78.43 -26.01 78.43 -24.65C78.43 -23.29 77.98 -22.02 77.06 -20.85C76.14 -19.67 74.68 -19.09 72.67 -19.09Z"></path></g><g id="SvgjsG12794" class="text" transform="translate(358.3262273998256, 84.4232596883468) scale(1)" light-content="false" fill="#ffffff"><path d="M-71.08 -41.01L-99.05 -41.01L-99.05 0L-70.3 0L-70.3 -7.8L-90.97 -7.8L-90.97 -16.66L-73.36 -16.66L-73.36 -24.46L-90.97 -24.46L-90.97 -33.21L-71.08 -33.21Z M-43.77 -34.05C-41.13 -34.05 -38.03 -33.06 -34.47 -31.09L-31.4 -37.28C-33.33 -38.54 -35.32 -39.52 -37.36 -40.21C-39.41 -40.89 -41.95 -41.24 -45 -41.24C-48.86 -41.05 -51.95 -39.88 -54.28 -37.73C-56.6 -35.57 -57.76 -32.73 -57.76 -29.2C-57.76 -26.79 -57.19 -24.78 -56.06 -23.18C-54.93 -21.58 -53.58 -20.36 -52.02 -19.5C-50.46 -18.65 -48.51 -17.76 -46.17 -16.83C-42.19 -15.27 -40.21 -13.43 -40.21 -11.31C-40.21 -9.68 -40.84 -8.5 -42.1 -7.77C-43.36 -7.05 -44.85 -6.69 -46.56 -6.69C-48.01 -6.69 -49.64 -7.02 -51.46 -7.69C-53.28 -8.36 -54.9 -9.21 -56.31 -10.25L-59.88 -3.96C-57.8 -2.47 -55.55 -1.37 -53.13 -0.64C-50.72 0.08 -48.29 0.45 -45.83 0.45C-42.9 0.45 -40.37 -0.08 -38.26 -1.14C-36.14 -2.2 -34.53 -3.63 -33.43 -5.43C-32.34 -7.23 -31.79 -9.19 -31.79 -11.31C-31.79 -13.76 -32.25 -15.79 -33.16 -17.39C-34.07 -18.98 -35.21 -20.24 -36.58 -21.15C-37.96 -22.06 -39.61 -22.87 -41.54 -23.57C-43.92 -24.46 -45.82 -25.4 -47.25 -26.39C-48.68 -27.37 -49.4 -28.51 -49.4 -29.81C-49.4 -31.22 -48.91 -32.28 -47.92 -32.99C-46.94 -33.69 -45.56 -34.05 -43.77 -34.05Z M1.98 -8.02L5.15 0L14.52 0L-3.98 -42.63L-4.43 -42.63L-22.93 0L-14.96 0L-11.62 -8.02ZM-0.7 -14.82L-8.78 -14.82L-4.65 -24.8Z M34.02 -24.35L34.24 -26.41L34.24 -41.01L26.05 -41.01L26.05 0L34.24 0L34.24 -15.49L36.25 -17.5L48.9 0L59.15 0L42.16 -22.62L59.1 -41.01L48.62 -41.01L35.25 -25.91Z M91.14 -8.02L94.31 0L103.68 0L85.18 -42.63L84.73 -42.63L66.23 0L74.2 0L77.54 -8.02ZM88.46 -14.82L80.38 -14.82L84.51 -24.8Z"></path></g><g id="SvgjsG12795" class="EahnQi_9Ho" transform="translate(171.2183911744433, -9.024277119992488) scale(1.1684937355940046)" light-content="false" fill="#ffffff"><path d="M33.329 27.033c-18.15-.593-14.573 7.76-13.865 10.29-.44-3.278-3.639-10.295 13.865-10.29z"></path><path d="M25.109 26.893c-2.299.229-6.305-2.361-8.604-1.954-.6 2.081.373 4.773 1.672 6.421.372-1.568 2.018-3.966 6.932-4.467zm8.12 15.195c-6.406 7.025-5.873 17.649-5.171 21.269-2.392 2.642-6.226 6.506-9.815 13.112-18.197 5.393-3.606 9.323-9.593 13.194-.736.743 14.831 2.855 9.443-5.086-3.545.572-7.728.308-7.46-2.412-.134-2.38 6.983-4.383 9.918-5.175.934-3.967 6.272-10.992 9.075-13.599-1.469-3.06-1.867-15.1 3.603-21.303m4.13-13.712c4.138 2.719.828 8.447-.248 9.972.995-2.076 3.927-6.576.248-9.972z"></path><path d="M31.505 88.664c-9.057.429-10.31-1.395 1.866-4.732-2.994.354-7.342 1.33-8.418 1.564-5.707 1.253-6.408 4.441.098 5.215 4.347.446 9.26.599 19.473-1.232 5.633-1.288 4.374-7.014-1.946-19.11 7.287 16.363-6.54 17.888-11.073 18.295zM59.54 68.688c1.385.92 2.57 1.883 5.854 1.131l-1.775 4.439c-2.428-.854-3.768-1.855-5.141-3.838l1.062-1.732zm6.734-7.15c-1.238.376-3.613.705-5.475-.498l-.25 4.3c1.859 1.281 3.779.639 5.725-.188v-3.614zm-.795-6.999c-1.508-.226-3.812-.527-5.672.226l.742 3.763c2.395 1.58 4.242.346 5.482-.331l-.552-3.658zm-1.597-7.752c-1.238-.076-4.5-.275-6.094.178l1.045 3.81c2.746 2.333 4.52.075 5.76-.827l-.711-3.161zm-8.506-8.505c1.596-.602 5.051-.527 6.557-.151l.725 3.478c-1.152.904-3.461 3.035-6.475.023l-.807-3.35zm5.492-9.108c-.973.225-4.771 1.869-7.254-.313l.699 5.046c2.393.829 5.227.686 6.912-.066l-.357-4.667zm-6.469-9.559c3.9.602 5.584 1.129 7.533 1.807l-.885 4.215c-1.867 1.411-2.812 2.015-7.537.526l.889-6.548zm.622-2.032c2.127-.601 6.383.453 8.066 1.43l2.479-2.709c-3.01-1.129-5.227-2.634-5.496-5.795-1.729 1.028-4.577 5.409-5.049 7.074zm13.607-9.86c.975 1.732 2.127 4.293 2.039 7.002l-3.061.374c-.709-1.58-.266-2.708-5.674-5.72l6.696-1.656zm6.947 8.33c1.064-1.28 2.045-5.093 2.225-5.845l-4.344-1.731c.266 1.58.682 4.939-.029 6.746l2.148.83zm5.612 3.562c-1.771-2.935 1.664-4.892 3.17-4.892l-2.746-2.182c-.977.978-3.059 1.76-3.592 4.921l3.168 2.153zm10.164 2.012c-3.459-.979-6.213-2.175-4.885 3.921l-1.742-2.014c-4.076-8.054 2.645-5.502 3.885-4.977l2.742 3.07m2.248 2.853c1.434 2.89-1.104 6.294-5.5 2.717 1.109-3.637 2.283-4.969 5.5-2.717M28.297 39.917c.261 2.935-9.005 7.807-11.973 3.475-.958-1.932 6.226-7.338 3.474-8.761 3.934 1.509-1.35 6.75-1.088 7.788.785 1.777 9.036.91 9.587-2.502zm7.924-6.584c4.91-3.864-1.194-7.625-2.273-7.929-3.335 3.333-4.93 4.069-3.83 7.521 3.247-5.862 9.793-5.047 6.103.408z"></path><path d="M56.304 67.806C45.17 57.131 43.5 61.424 41.946 63.256 26.024 83.69 15.249 83.078 12.736 82.874c4.364-.046 22.166-7.974 24.172-27.758 2.007-19.783 16.798 5.617 19.396 12.69z"></path></g><rect id="SvgjsRect12796" width="156.61930833062124" height="1.9659574468085104" fill="#ffffff" transform="translate(289.25920612322983, 31.104815858516503) scale(1)" light-content="false"></rect><rect id="SvgjsRect12797" width="169.8916487561532" height="1.9659574468085104" fill="#ffffff" transform="translate(6.880851063829766, 97.80022989564893) scale(1)" light-content="false"></rect></g></g></svg>